<?xml version="1.0" encoding="utf-8"?>
<!-- Generator: Adobe Illustrator 28.2.0, SVG Export Plug-In . SVG Version: 6.00 Build 0)  -->
<svg version="1.1" id="he2bc87boe8e8-v0b07a1_Layer_1" xmlns="http://www.w3.org/2000/svg" xmlns:xlink="http://www.w3.org/1999/xlink" x="0px" y="0px" viewBox="0 0 201.0410309 174.2547607" style="enable-background:new 0 0 201.0410309 174.2547607;" xml:space="preserve" class="he2bc87boe8e8-v0b07a1">
<style>.he2bc87boe8e8-v0b07a1 .st1{fill:#FFFFFF;} .he2bc87boe8e8-v0b07a1 .st14{fill:#FF0000;}</style>
<g>
	<path class="st14" d="M97.1820068,164.282135c-41.1005554,0-74.5379791-33.4374237-74.5379791-74.5379868
		S56.0814514,15.206172,97.1820068,15.206172c7.1111145,0,14.1466217,1.0009184,20.9114075,2.9747305
		c2.2963486,0.6699219,3.6145172,3.0746632,2.9445953,5.3715382c-0.6709824,2.2958202-3.0762482,3.615572-5.3715439,2.9445915
		c-5.9758987-1.7438068-12.195015-2.6278706-18.4844589-2.6278706c-36.3238564,0-65.8749924,29.5511341-65.8749924,65.8749847
		s29.551136,65.8749924,65.8749924,65.8749924s65.8749847-29.5511322,65.8749847-65.8749924
		c0-5.5047836-0.6799622-10.9741364-2.020874-16.2568512c-0.5890198-2.3190842,0.81427-4.675705,3.132309-5.2642059
		c2.3148499-0.5900803,4.6751709,0.8132172,5.2642059,3.1323013c1.5175018,5.9790726,2.2873535,12.1659393,2.2873535,18.3887558
		C171.719986,130.8447113,138.2825623,164.282135,97.1820068,164.282135z"/>
	<path class="st14" d="M153.8520355,59.0625534c-2.3920441,0-4.3314972-1.9394417-4.3314972-4.3314934V14.3041296
		c0-2.3920507,1.9394531-4.3314943,4.3314972-4.3314943c2.3920593,0,4.3309631,1.9394436,4.3309631,4.3314943V54.73106
		C158.1829987,57.1231117,156.2440948,59.0625534,153.8520355,59.0625534z"/>
	<path class="st14" d="M174.065506,38.8490906h-40.4269257c-2.3920593,0-4.3314972-1.9394455-4.3314972-4.3314972
		c0-2.3920479,1.9394379-4.3314934,4.3314972-4.3314934h40.4269257c2.3920441,0,4.3314972,1.9394455,4.3314972,4.3314934
		C178.3970032,36.9096451,176.45755,38.8490906,174.065506,38.8490906z"/>
	<g>
		<path class="st1" d="M67.5631866,116.1608734V77.4354553c-7.2062874,5.5328064-12.0575409,8.2981491-14.5537567,8.2981491
			c-1.1917953,0-2.2487602-0.4748154-3.1703644-1.425499c-0.9221344-0.9496307-1.3832016-2.0494232-1.3832016-3.2972641
			c0-1.4477081,0.4536629-2.5115509,1.3620529-3.1925735c0.9073296-0.6799698,2.5104904-1.5598068,4.8084221-2.6384506
			c3.4326248-1.6169052,6.1773491-3.3184128,8.2347031-5.1055832c2.0563011-1.7882156,3.8788872-3.787941,5.4683037-6.0012741
			c1.588356-2.2122765,2.623642-3.5743294,3.1063843-4.0850983c0.4822159-0.5107689,1.3895493-0.765625,2.7235794-0.765625
			c1.5032272,0,2.7087708,0.5816231,3.617157,1.7448654c0.9073257,1.1632423,1.3615189,2.7664032,1.3615189,4.8084259v48.7261429
			c0,5.7020035-1.9431381,8.553009-5.8299637,8.553009c-1.7305832,0-3.1211929-0.5816269-4.1702271-1.7448654
			C68.0877075,120.1465683,67.5631866,118.4313126,67.5631866,116.1608734z"/>
		<path class="st1" d="M93.6134949,75.43573c0-2.8361969,0.7724991-5.5105972,2.3190842-8.0221481
			c1.546051-2.5104904,3.8154373-4.5165558,6.8091965-6.0213699c2.9927139-1.502697,6.4893112-2.2556343,10.4898148-2.2556343
			c3.3755188,0,6.3407288,0.4409752,8.8940506,1.3197556c2.5533142,0.8798332,4.6809921,2.0927773,6.3830261,3.6388359
			c1.7020416,1.546051,2.9641571,3.2909164,3.7874146,5.2335358c0.8227386,1.9436722,1.2341003,4.0079041,1.2341003,6.1916275
			c0,2.7812042-0.71698,5.2631454-2.1488342,7.4479294c-1.4328918,2.1847763-3.5679779,3.9719467-6.4047012,5.3614883
			c2.4110794,0.9358826,4.4108047,2.1636353,6.0002213,3.6811371c1.5883484,1.5175018,2.7875519,3.2771759,3.5960083,5.2768936
			c0.8084564,1.9997253,1.2129364,4.220459,1.2129364,6.6600952c0,3.5743332-0.8660889,6.8155518-2.5961456,9.7236557
			c-1.7305908,2.9081116-4.2701569,5.1848984-7.6171265,6.8303528c-3.3480225,1.6444092-7.2919464,2.4681931-11.8307114,2.4681931
			c-4.709549,0-8.7380676-0.8237839-12.0855713-2.4681931c-3.347496-1.6454544-5.872261-3.908493-7.5748215-6.7880478
			c-1.7020416-2.8795547-2.5533218-6.1070328-2.5533218-9.6813583c0-7.6308746,3.6028824-12.8654709,10.8091736-15.7027283
			C96.5210724,85.6067047,93.6134949,81.307991,93.6134949,75.43573z M124.1253586,103.6073685
			c0-2.2133331-0.4541931-4.1422043-1.3615189-5.7876663c-0.9083862-1.645462-2.1847839-2.9081039-3.830246-3.787941
			c-1.645462-0.8787766-3.4891968-1.3186951-5.5317459-1.3186951c-2.893837,0-5.319725,0.9644318-7.2771454,2.8933029
			c-1.9574203,1.929924-2.9361343,4.6244202-2.9361343,8.0855942c0,2.2133331,0.4605408,4.1644135,1.3826752,5.8511124
			c0.921608,1.6888199,2.1773758,2.9937668,3.7662659,3.9159012c1.588356,0.9221344,3.3617706,1.3821487,5.3197174,1.3821487
			c1.9854507,0,3.7726135-0.4674149,5.361496-1.4043579c1.5888824-0.9358749,2.836731-2.25457,3.7451172-3.9571381
			C123.6711655,107.7770615,124.1253586,105.8196411,124.1253586,103.6073685z M113.4869766,67.2655334
			c-2.6669998,0-4.8163605,0.8290787-6.4475403,2.4893417c-1.6317139,1.6592102-2.4465179,3.7942886-2.4465179,6.4041824
			c0,2.4121399,0.8364792,4.4192657,2.5104904,6.0213699c1.6734848,1.603157,3.830246,2.4047394,6.468689,2.4047394
			c1.3329773,0,2.5459213-0.2125549,3.6383133-0.6387253c1.0918579-0.4251099,2.0277405-1.0141373,2.8087006-1.7660141
			c0.7798996-0.750824,1.3826752-1.6444016,1.8083115-2.680748c0.4256439-1.0352859,0.6381989-2.1773758,0.6381989-3.4252243
			c0-1.6740112-0.3759384-3.1777649-1.1272888-4.5112686c-0.7524033-1.3334961-1.8088379-2.3835907-3.1703644-3.1492157
			C116.8059158,67.6483459,115.2455826,67.2655334,113.4869766,67.2655334z"/>
	</g>
</g>
</svg>
