<?xml version="1.0" encoding="utf-8"?>
<!-- Generator: Adobe Illustrator 28.2.0, SVG Export Plug-In . SVG Version: 6.00 Build 0)  -->
<svg version="1.1" id="hb9g2d7a5b10e4cc_Layer_1" xmlns="http://www.w3.org/2000/svg" xmlns:xlink="http://www.w3.org/1999/xlink" x="0px" y="0px" viewBox="0 0 243.6528625 174.2547607" style="enable-background:new 0 0 243.6528625 174.2547607;" xml:space="preserve" class="hb9g2d7a5b10e4cc">
<style>.hb9g2d7a5b10e4cc .st1{fill:#FFFFFF;}</style>
<g>
	<g>
		<path class="st1" d="M42.6534996,87.6322632h13.6663742v19.6028671h-4.4815865v-6.1038742
			c-1.2323761,2.0150146-1.7915115,2.7424622-2.9126167,3.6952591c-2.576004,2.2412567-5.7130089,3.4165878-9.0725784,3.4165878
			c-9.1847897,0-16.3545628-8.9622269-16.3545628-20.4986267c0-11.6504669,7.1136684-20.723938,16.2432919-20.723938
			c3.7522736,0,8.1758919,1.0649948,11.7607765,6.8340988V67.748909h4.1440659v12.5461731h-4.3123474
			c-0.5591812-2.1842041-1.2314644-3.5839462-2.2403336-4.8163071c-2.2403183-2.7452164-5.2633018-4.3132782-8.4003067-4.3132782
			c-4.8733673,0-11.8739281,4.1459198-11.8739281,16.3536606c0,9.4661789,5.0968552,16.5228729,11.9291191,16.5228729
			c4.9855461,0,9.6896706-4.0888824,10.8089104-9.3539963c0.169239-0.7826538,0.2234917-1.567131,0.2805099-3.1912689h-9.1847878
			V87.6322632L42.6534996,87.6322632z"/>
		<path class="st1" d="M89.9808655,107.2351303h-8.5143433v-5.3212204
			c-2.4067917,3.7541122-5.6559906,5.8822327-10.0805511,5.8822327c-5.6008301,0-9.6896858-3.8654175-9.6896858-9.0735016
			c0-5.713028,5.0407219-8.571373,16.9137077-9.6906281c0.3936615-0.0561066,1.6250916-0.1673584,2.8013458-0.2804947v-3.0799866
			c0-3.4147644-2.632103-5.545639-6.777092-5.545639c-4.3693848,0-6.3291779,1.4567795-7.2249527,5.3212509h-4.5367546
			c0.6713448-3.0229874,1.5680351-4.5928726,3.3604851-6.1599808c2.0177765-1.6802673,4.8172455-2.5760269,8.064621-2.5760269
			c6.1618271,0,11.4269714,2.8565216,11.4269714,10.4162216v16.5799026h4.2562485V107.2351303L89.9808655,107.2351303z
			 M81.4113388,91.8315048l-2.7443161,0.3366013c-9.1857147,1.1201782-12.265686,2.8004227-12.265686,6.6087875
			c0,3.1370163,2.7443314,5.7130203,6.2160645,5.7130203c5.3212509,0,8.7939377-5.039856,8.7939377-7.7850418V91.8315048
			L81.4113388,91.8315048z"/>
		<path class="st1" d="M102.4415436,82.7580032c1.3445358-2.0711212,4.032753-6.2161102,9.5213852-6.2161102
			c3.9766464,0,6.2730865,2.0738983,7.0014877,6.27314c1.1762543-2.0150146,1.7363129-2.7433929,2.8564987-3.6952591
			c1.9598083-1.7372665,4.0879593-2.5778809,6.4404678-2.5778809c4.5928497,0,7.2810516,2.9687347,7.2810516,8.1768417v18.9885254
			h4.1450195v3.5278702h-8.4573669V86.28862c0-4.2019882-1.3997498-6.1056976-4.3132706-6.1056976
			c-5.2081146,0-7.9524002,6.2730865-7.9524002,8.2899246v15.2344131h4.3123779v3.5278702h-8.6247559V85.6144714
			c0-3.7513046-1.4006424-5.4315491-4.3132782-5.4315491c-4.6480179,0-7.9524231,5.7690735-7.9524231,8.5143433v15.0099945
			h4.2562714v3.5278702H93.7037048v-3.5278702h4.3693848V80.6298523h-4.3693848v-3.5839462h8.7378387V82.7580032
			L102.4415436,82.7580032z"/>
		<path class="st1" d="M144.1680603,66.0116653h8.4012451v17.420433c1.1201782-2.1280975,4.592865-6.6648636,9.8570862-6.6648636
			c6.7770844,0,11.9299927,6.8892822,11.9299927,15.7383957c0,8.2319946-5.4886017,15.1203766-12.041275,15.1203766
			c-5.321228,0-7.8972626-3.5278702-9.7458038-6.0477982v5.6569214h-8.5695343v-3.5278702h4.2571716v-34.164978h-4.0888824
			V66.0116653L144.1680603,66.0116653z M152.5693054,94.5206223c0,4.9846191,4.0327759,9.4101028,8.6256104,9.4101028
			c5.1529388,0,8.4564514-4.6498489,8.4564514-11.8729782c0-6.9453812-3.3035126-11.7074585-8.2881317-11.7074585
			c-4.3693542,0-8.7939301,4.8733597-8.7939301,9.1296082V94.5206223L152.5693054,94.5206223z"/>
		<polygon class="st1" points="177.7675018,66.0116653 186.3369904,66.0116653 186.3369904,103.7072601 190.369751,103.7072601 
			190.369751,107.2351303 177.712265,107.2351303 177.712265,103.7072601 182.0246429,103.7072601 182.0246429,69.5422821 
			177.7675018,69.5422821 177.7675018,66.0116653 		"/>
		<path class="st1" d="M219.4829712,98.946106c-0.6161652,2.0720139-1.2884674,3.3044052-2.4086151,4.5910187
			c-2.4086456,2.8022385-5.7129974,4.3132706-9.4661865,4.3132706c-8.1768494,0-13.8889465-6.3843689-13.8889465-15.5691528
			c0-8.849144,5.7120972-15.6271133,13.1614685-15.6271133c7.5054474,0,13.2736511,5.8261337,13.2736511,16.355484h-21.7870941
			c0.3917847,4.4236374,1.4006805,6.8892822,3.4726868,8.9042969c1.5680389,1.5128555,3.4165955,2.2412338,5.6569214,2.2412338
			c3.4726868,0,5.6008148-1.5698853,7.1127777-5.2090378H219.4829712L219.4829712,98.946106z M215.1706238,89.7033844
			c-0.3366089-3.7513885-1.1771851-5.8234024-2.9126129-7.5036163c-1.3445435-1.2323914-3.0248108-1.8494797-4.9855347-1.8494797
			c-3.6400909,0-6.6649017,2.4647446-8.0085449,6.4422913c-0.224411,0.7265778-0.5048981,1.8476562-0.6161804,2.9108047H215.1706238
			L215.1706238,89.7033844z"/>
	</g>
	<g>
		<path class="st1" d="M37.5005493,114.4112778h9.465313l10.8650017,33.0448227h2.9696312v6.441391h-9.0735054l-2.576004-8.569519
			H35.2602196l-2.576931,8.569519h-9.1847591v-6.441391h3.0247841L37.5005493,114.4112778L37.5005493,114.4112778z
			 M42.2607803,121.8036118l-5.2641869,17.4756699h10.4171486L42.2607803,121.8036118L42.2607803,121.8036118z"/>
		<polygon class="st1" points="60.5761032,123.932663 72.5622101,123.932663 72.5622101,129.7578888 69.5373993,129.7578888 
			73.6814651,147.3999939 78.6109085,123.932663 86.3398743,123.932663 91.3244934,147.1194916 95.3011932,129.7578888 
			92.3885956,129.7578888 92.3885956,123.932663 104.430748,123.932663 104.430748,129.7578888 101.8538742,129.7578888 
			95.4124527,153.8974915 87.4599915,153.8974915 82.4754028,133.0613708 77.7703247,153.8974915 69.7057114,153.8974915 
			63.0960045,129.7578888 60.5761032,129.7578888 60.5761032,123.932663 		"/>
		<path class="st1" d="M132.7705231,148.0713654h2.5769196v5.8261261h-9.2978897v-3.5278625
			c-3.0799866,3.0799866-5.3763657,4.1431274-9.0725784,4.1431274c-5.9935455,0-10.5863571-4.0327759-10.5863571-9.3521729
			c0-8.7948303,9.9140625-9.7467041,19.4915466-10.6424561c-0.056015-4.5928497-1.1762543-5.7691345-5.5456009-5.7691345
			c-3.0799332,0-5.2081451,1.7372742-5.3764267,4.5367737l-7.2810593-0.2243958
			c0.3917542-5.9926147,5.2090378-9.8571091,12.3218689-9.8571091c8.2889709,0,12.769577,3.7531815,12.769577,10.5854568
			V148.0713654L132.7705231,148.0713654z M125.7699585,139.7271576c-7.0575333,0.6713715-11.6494522,1.2884674-11.6494522,5.4334259
			c0,2.4629059,1.9598083,4.0870361,4.9284897,4.0870361c3.8083572,0,6.7209625-2.8564911,6.7209625-6.6078644V139.7271576
			L125.7699585,139.7271576z"/>
		<path class="st1" d="M150.8054352,128.5816345c1.9606476-3.8083878,4.1448822-5.3773727,7.5044556-5.3773727
			c1.0088806,0,1.9046326,0.112236,3.3614502,0.3927002v7.0015182c-1.3446045-0.2796021-2.4086456-0.3927002-3.6409912-0.3927002
			c-3.9206238,0-7.2249146,2.7994843-7.2249146,6.2169952v11.6485901h3.5848389v5.8261261h-13.833786v-5.8261261h2.9116974
			v-18.3134766h-2.8565216v-5.8252258h10.1937714V128.5816345L150.8054352,128.5816345z"/>
		<path class="st1" d="M191.8035278,144.039505c-1.3445435,6.496582-6.7770996,10.5293579-14.0581512,10.5293579
			c-8.4011841,0-14.5621643-6.5517426-14.5621643-15.7383881c0-9.0725861,6.2170563-15.7935715,14.6182861-15.7935715
			c4.7602081,0,8.9603729,2.2412567,11.5373077,6.1057205c2.7443085,4.2001648,2.8565216,8.1749878,2.9686737,11.2007294
			h-21.6197052c0.7283783,7.7850494,5.8252716,8.1758881,7.2249908,8.1758881c2.9687347,0,4.9294281-1.3997498,6.1047974-4.4797363
			H191.8035278L191.8035278,144.039505z M184.1297607,135.1894989c-0.5030518-3.8083954-2.8003845-5.8794861-6.3282623-5.8794861
			c-3.2492218,0-5.7691193,2.1842194-6.7210083,5.8794861H184.1297607L184.1297607,135.1894989z"/>
	</g>
	<g>
		<path class="st1" d="M23.6107101,19.6858978h15.066124c6.7218933,0,9.2408943,0.2234917,11.1455231,1.0649738
			c2.6330338,1.1192818,6.0487251,4.3123779,6.0487251,9.5204887c0,3.976675-1.2884941,5.9364872-5.096859,8.0085316
			c4.4806633,1.8503799,6.5536079,4.6498718,6.5536079,9.8579865c0,6.6106071-5.0977249,11.0342407-12.7144814,11.0342407
			H23.4985294v-6.4413986h3.0808868V26.1263981h-2.9687061V19.6858978L23.6107101,19.6858978z M34.6449814,26.1263981v9.5774632
			h7.784111c3.3605118,0,5.6578445-2.0710907,5.6578445-5.0407257c0-2.6321354-2.5769272-4.5367374-6.21698-4.5367374H34.6449814
			L34.6449814,26.1263981z M34.6449814,41.9208679v10.8098526h8.2890244c3.5278702,0,6.2730827-2.2955093,6.2730827-5.3212204
			c0-3.3044052-2.8013191-5.4886322-7.0584869-5.4886322H34.6449814L34.6449814,41.9208679z"/>
		<path class="st1" d="M90.3892136,49.3141327c-1.3436432,6.4965744-6.7770691,10.5293579-14.0581512,10.5293579
			c-8.4012222,0-14.56213-6.551754-14.56213-15.7383957c0-9.0725784,6.2170067-15.7935715,14.6191597-15.7935715
			c4.760231,0,8.9594574,2.2412567,11.5373077,6.1057243c2.7433929,4.2001686,2.8555908,8.1749916,2.9677811,11.2007294H69.2744217
			c0.728363,7.7850418,5.8252182,8.1758919,7.2240219,8.1758919c2.969635,0,4.9294586-1.3997459,6.1066513-4.4797363H90.3892136
			L90.3892136,49.3141327z M82.7154388,40.464119c-0.5030441-3.8083916-2.7994766-5.8794823-6.3273468-5.8794823
			c-3.250145,0-5.7691193,2.184227-6.7218933,5.8794823H82.7154388L82.7154388,40.464119z"/>
	</g>
</g>
</svg>
