<?xml version="1.0" encoding="utf-8"?>
<!-- Generator: Adobe Illustrator 23.0.1, SVG Export Plug-In . SVG Version: 6.00 Build 0)  -->
<svg version="1.1" id="Layer_1" xmlns="http://www.w3.org/2000/svg" xmlns:xlink="http://www.w3.org/1999/xlink" x="0px" y="0px" viewBox="0 0 26 26" style="enable-background:new 0 0 26 26;" xml:space="preserve" class="h9cd9tceua2_s3rtydr9ga64f_" >
<style type="text/css">.h9cd9tceua2_s3rtydr9ga64f_ .st0{fill:#A2AABD;} </style>
<g>
	<path class="st0" d="M13,0C5.8,0,0,5.8,0,13s5.8,13,13,13s13-5.8,13-13S20.2,0,13,0z M14.8,14.8v6.9h-3.5v-6.9c-4-0.2-7-1-7-1.9
		s3-1.7,7-1.9V8.9h-5V5.6h13.3v3.3h-4.9V11l0,0c4,0.2,7,1,7,1.9C21.7,13.9,18.8,14.7,14.8,14.8z"/>
	<path class="st0" d="M14.8,11.3v2.4c-0.1,0-0.6,0.1-1.7,0.1c-0.9,0-1.6,0-1.8-0.1v-2.4c-3.5,0.2-6.1,0.8-6.1,1.5s2.6,1.3,6.1,1.5
		l0,0c0.2,0,0.9,0,1.8,0c1.1,0,1.7,0,1.8,0l0,0l0,0c3.5-0.2,6.1-0.8,6.1-1.5C20.9,12,18.3,11.4,14.8,11.3z"/>
</g>
</svg>
