<svg width="27" height="30" viewBox="0 0 27 30" fill="none" xmlns="http://www.w3.org/2000/svg" class="he1ara1c5dm2baac84g3">
<g style="mix-blend-mode:luminosity" opacity="0.7" clip-path="url(#he1ara1c5dm2baac84g3_clip0_57_5305)">
<path d="M4.22764 27.8221C4.16933 29.1419 3.28751 30 2.10796 30C1.4891 30 0.957622 29.7607 0.537278 29.2879C0.186924 28.8966 0 28.3886 0 27.8163C0 27.2382 0.221826 26.7068 0.648191 26.2865C1.05104 25.8832 1.5474 25.6848 2.15468 25.6848C3.00139 25.6848 3.65546 26.0997 3.97651 26.8176H3.23512C2.96057 26.4675 2.57503 26.2865 2.10796 26.2865C1.71673 26.2865 1.35468 26.4379 1.08025 26.7183C0.788313 27.016 0.624882 27.425 0.624882 27.8221C0.624882 28.2599 0.776597 28.657 1.04525 28.9374C1.33137 29.2351 1.72252 29.4045 2.10796 29.4045C2.73274 29.4045 3.22322 29.0714 3.53865 28.406H1.65841V27.8221H4.22764Z" fill="white"/>
<path d="M4.8739 29.9183H4.2373L5.86061 25.7666H6.44469L8.06789 29.9183H7.40811L6.95266 28.7098H5.34105L4.8739 29.9183ZM6.15275 26.5491L5.55698 28.1255H6.73663L6.15275 26.5491Z" fill="white"/>
<path d="M8.29443 29.9183V25.7666H9.18774L10.3907 28.9782L11.5935 25.7666H12.4754V29.9183H11.909L11.9498 26.3155L10.601 29.9183H10.1747L8.83169 26.3155L8.87249 29.9183H8.29443Z" fill="white"/>
<path d="M15.1186 30C14.5051 30 13.9856 29.7723 13.5769 29.3403C13.1857 28.9258 12.9871 28.4118 12.9871 27.7989C12.9871 27.2266 13.2032 26.701 13.6177 26.2981C14.0266 25.8948 14.5406 25.6848 15.1302 25.6848C16.0996 25.6848 16.9285 26.3215 17.1973 27.3432H16.0996C15.8777 26.9344 15.5447 26.7183 15.136 26.7183C14.517 26.7183 14.0324 27.197 14.0324 27.8047C14.0324 28.4644 14.5464 28.9724 15.1186 28.9724C15.5097 28.9724 15.8543 28.7622 16.0762 28.3768H17.1799C16.9053 29.3869 16.117 30 15.1186 30Z" fill="white"/>
<path d="M18.2057 29.9183H17.0962L18.6902 25.7666H19.5195L21.1135 29.9183H19.9924L19.7879 29.3169H18.416L18.2057 29.9183ZM19.1047 27.1272L18.6902 28.4583H19.5137L19.1047 27.1272Z" fill="white"/>
<path d="M21.1938 29.9183V25.7666H22.5718C23.0097 25.7666 23.3427 25.7958 23.6232 25.9942C23.991 26.2511 24.1836 26.6423 24.1836 27.1562C24.1836 27.8279 23.8332 28.3299 23.2435 28.4933L24.2594 29.9183H23.0039L22.2098 28.5812V29.9183H21.1938V29.9183ZM22.4084 27.6818C22.9107 27.6818 23.1557 27.5532 23.1557 27.1796C23.1557 26.835 22.9399 26.6951 22.4902 26.6951H22.2098V27.6818H22.4084V27.6818Z" fill="white"/>
<path d="M24.7197 29.9183V25.7666H26.9736V26.6835H25.7356V27.3548H26.9736V28.2773H25.7356V29.0016H26.9736V29.9183H24.7197Z" fill="white"/>
<path d="M26.2376 14.3635C26.1262 14.3006 26.0034 14.2581 25.8716 14.2398C25.8406 14.2346 25.8098 14.2335 25.7784 14.2304C25.7616 14.2296 25.7456 14.2254 25.7286 14.2254H25.6816C25.6398 14.2244 25.5979 14.2223 25.5566 14.2254H17.4381C16.8637 14.2254 16.3978 14.691 16.3978 15.2653C16.3978 15.8398 16.8637 16.3056 17.4381 16.3056H20.5923C20.6963 16.3064 20.7805 16.3911 20.7805 16.4953C20.7805 16.5555 20.7487 16.6051 20.7047 16.6397C18.9753 17.5634 16.7508 18.1233 14.3171 18.1233C13.7249 18.1233 13.1458 18.0887 12.582 18.0255V20.387C13.0732 20.423 13.5715 20.4434 14.0777 20.4434C17.4649 20.4434 20.5463 19.6153 22.856 18.2623L22.8566 18.2655C22.8852 18.2505 22.9174 18.2419 22.9518 18.2419C23.0648 18.2419 23.1564 18.3335 23.1564 18.4465C23.1564 18.4671 23.1527 18.4869 23.1464 18.5061L22.6652 19.8129C22.412 20.5004 22.7636 21.2627 23.4513 21.5159C23.6025 21.5719 23.7573 21.5981 23.9098 21.5981C24.4496 21.5981 24.9567 21.2663 25.1543 20.73L26.8953 16.0044C27.1317 15.3625 26.8367 14.6606 26.2376 14.3635Z" fill="white"/>
<path d="M14.3171 5.44038C16.77 5.44028 19.0155 6.00517 20.7507 6.94187C20.7507 6.94187 21.8527 7.73498 22.377 6.97368C22.9786 6.10006 21.7773 5.55639 21.7773 5.55639C19.624 4.54388 16.9607 3.94509 14.0777 3.94519C13.5715 3.94519 13.0732 3.96559 12.582 4.0016V5.53839C13.1458 5.47528 13.7249 5.44038 14.3171 5.44038Z" fill="white"/>
<path d="M1.85102 0C0.838198 0 0.0166016 0.821412 0.0166016 1.83444V21.8503C0.0166016 22.8637 0.838198 23.6846 1.85102 23.6846H12.5821V20.387C6.12547 19.9151 1.11053 16.4281 1.11053 12.1943C1.11053 7.96041 6.12547 4.47356 12.5821 4.0016V0H1.85102Z" fill="white"/>
<path d="M4.36011 11.7819C4.36011 14.9068 7.91056 17.5021 12.5821 18.0254V5.53833C7.91056 6.0615 4.36011 8.65664 4.36011 11.7819Z" fill="white"/>
</g>
<defs>
<clipPath id="he1ara1c5dm2baac84g3_clip0_57_5305">
<rect width="26.977" height="30" fill="white"/>
</clipPath>
</defs>
</svg>
