<svg width="107" height="28" viewBox="0 0 107 28" fill="none" xmlns="http://www.w3.org/2000/svg">
	<path d="M28.8584 7.65486H34.2054V9.47012H32.4428V17.3296H30.575V9.47012H28.8584V7.65486Z"
		fill="#F26E26" />
	<path
		d="M34.9404 7.41147H36.7228V10.8972C37.0735 10.5947 37.4265 10.3678 37.7817 10.2165C38.1368 10.0652 38.4963 9.98963 38.8603 9.98963C39.5706 9.98963 40.1691 10.2352 40.6558 10.7262C41.0723 11.1516 41.2806 11.7764 41.2806 12.6007V17.3295H39.5114V14.1923C39.5114 13.3636 39.4719 12.8024 39.393 12.5086C39.3141 12.2149 39.1793 11.9956 38.9885 11.8509C38.7978 11.7062 38.5621 11.6338 38.2815 11.6338C37.9175 11.6338 37.6051 11.7545 37.3443 11.9956C37.0834 12.2368 36.9025 12.5656 36.8017 12.9821C36.7491 13.197 36.7228 13.6881 36.7228 14.4554V17.3295H34.9404V7.41147Z"
		fill="#F26E26" />
	<path
		d="M42.2596 10.1739H43.7986V11.0749C43.9652 10.7197 44.1866 10.4501 44.4629 10.2659C44.7391 10.0818 45.0416 9.9897 45.3705 9.9897C45.6028 9.9897 45.8462 10.0511 46.1005 10.1739L45.5415 11.7194C45.331 11.6142 45.1577 11.5616 45.0219 11.5616C44.7457 11.5616 44.5122 11.7326 44.3215 12.0746C44.1307 12.4166 44.0354 13.0874 44.0354 14.0872L44.0419 14.4357V17.3296H42.2596V10.1739Z"
		fill="#F26E26" />
	<path
		d="M53.8205 14.2713H48.0525C48.1358 14.78 48.3583 15.1845 48.7201 15.4848C49.0818 15.7851 49.5432 15.9353 50.1045 15.9353C50.7754 15.9353 51.3519 15.7007 51.8343 15.2315L53.347 15.9418C52.9698 16.4768 52.5183 16.8725 51.9921 17.129C51.466 17.3855 50.8411 17.5137 50.1177 17.5137C48.9952 17.5137 48.081 17.1597 47.3751 16.4516C46.6691 15.7435 46.3162 14.8566 46.3162 13.7912C46.3162 12.6994 46.6681 11.7929 47.3718 11.0716C48.0755 10.3504 48.9579 9.9897 50.019 9.9897C51.1459 9.9897 52.0622 10.3504 52.7682 11.0716C53.4741 11.7929 53.8271 12.7454 53.8271 13.9293L53.8205 14.2713ZM52.025 12.8572C51.9064 12.4583 51.6725 12.1338 51.3233 11.8839C50.9741 11.6339 50.569 11.509 50.1078 11.509C49.6071 11.509 49.1679 11.6494 48.7903 11.9299C48.5531 12.1053 48.3335 12.4144 48.1314 12.8572H52.025Z"
		fill="#F26E26" />
	<path
		d="M60.2186 10.1739H62.014V17.3296H60.2186V16.5732C59.8681 16.9065 59.5166 17.1465 59.1642 17.2934C58.8116 17.4403 58.4295 17.5137 58.0178 17.5137C57.0938 17.5137 56.2945 17.1553 55.62 16.4384C54.9456 15.7215 54.6084 14.8304 54.6084 13.7648C54.6084 12.6599 54.9347 11.7546 55.5872 11.0486C56.2398 10.3427 57.0324 9.9897 57.9653 9.9897C58.3944 9.9897 58.7973 10.0709 59.1739 10.233C59.5505 10.3953 59.8987 10.6386 60.2186 10.9631V10.1739ZM58.3311 11.6471C57.776 11.6471 57.315 11.8434 56.948 12.2357C56.5809 12.6282 56.3973 13.1313 56.3973 13.7451C56.3973 14.3634 56.5841 14.872 56.9577 15.271C57.3314 15.67 57.7912 15.8695 58.3375 15.8695C58.9013 15.8695 59.3689 15.6733 59.7403 15.2809C60.1116 14.8885 60.2975 14.3744 60.2975 13.7385C60.2975 13.116 60.1116 12.6117 59.7403 12.2258C59.3689 11.8401 58.8991 11.6471 58.3311 11.6471Z"
		fill="#F26E26" />
	<path
		d="M63.7096 7.53648H65.5052V10.1739H66.5706V11.7194H65.5052V17.3296H63.7096V11.7194H62.7889V10.1739H63.7096V7.53648Z"
		fill="#F26E26" />
	<path
		d="M69.34 7.65486H71.1343L73.3771 14.4028L75.6401 7.65486H77.4333L79.0563 17.3296H77.2754L76.238 11.2196L74.1827 17.3296H72.5598L70.5227 11.2196L69.4605 17.3296H67.665L69.34 7.65486Z"
		fill="white" />
	<path
		d="M86.8207 14.2712H81.0527C81.1359 14.7799 81.3585 15.1844 81.7202 15.4847C82.0819 15.785 82.5434 15.9351 83.1047 15.9351C83.7755 15.9351 84.3521 15.7006 84.8344 15.2314L86.3471 15.9417C85.97 16.4767 85.5184 16.8724 84.9923 17.1289C84.4661 17.3854 83.8413 17.5136 83.1178 17.5136C81.9953 17.5136 81.0812 17.1596 80.3753 16.4514C79.6693 15.7434 79.3164 14.8565 79.3164 13.791C79.3164 12.6993 79.6682 11.7928 80.372 11.0715C81.0757 10.3503 81.9581 9.98959 83.0192 9.98959C84.146 9.98959 85.0623 10.3503 85.7684 11.0715C86.4742 11.7928 86.8272 12.7453 86.8272 13.9292L86.8207 14.2712ZM85.0252 12.8571C84.9066 12.4582 84.6727 12.1337 84.3235 11.8837C83.9743 11.6338 83.5692 11.5089 83.108 11.5089C82.6073 11.5089 82.1681 11.6492 81.7904 11.9298C81.5532 12.1052 81.3337 12.4143 81.1316 12.8571H85.0252Z"
		fill="white" />
	<path
		d="M88.1552 7.53647H89.9507V10.1738H91.0162V11.7194H89.9507V17.3295H88.1552V11.7194H87.2344V10.1738H88.1552V7.53647Z"
		fill="white" />
	<path
		d="M91.5547 10.1737H93.0937V11.0748C93.2602 10.7196 93.4817 10.45 93.758 10.2658C94.0342 10.0817 94.3367 9.98959 94.6655 9.98959C94.8979 9.98959 95.1413 10.051 95.3956 10.1737L94.8365 11.7193C94.6261 11.6141 94.4528 11.5615 94.317 11.5615C94.0407 11.5615 93.8072 11.7325 93.6166 12.0745C93.4258 12.4165 93.3305 13.0873 93.3305 14.0871L93.337 14.4356V17.3294H91.5547V10.1737Z"
		fill="white" />
	<path
		d="M96.9849 7.22738C97.2996 7.22738 97.5696 7.34145 97.7947 7.56937C98.0199 7.79742 98.1325 8.07364 98.1325 8.39808C98.1325 8.71817 98.021 8.99113 97.798 9.21691C97.575 9.44278 97.3084 9.55561 96.998 9.55561C96.6788 9.55561 96.4066 9.44051 96.1814 9.21032C95.9563 8.98014 95.8438 8.70062 95.8438 8.37177C95.8438 8.05606 95.9551 7.78642 96.1781 7.56279C96.4012 7.33918 96.67 7.22738 96.9849 7.22738ZM96.0871 10.1739H97.8826V17.3296H96.0871V10.1739Z"
		fill="white" />
	<path
		d="M98.8687 10.1739H100.954L102.368 12.1241L103.775 10.1739H105.825L103.396 13.5412L106.143 17.3296H104.058L102.356 14.9824L100.662 17.3296H98.6122L101.328 13.5653L98.8687 10.1739Z"
		fill="white" />
	<path
		d="M8.67587 5.88673C8.3446 5.55545 7.8075 5.55545 7.47623 5.88671L0.248448 13.1145C-0.0828203 13.4458 -0.0828151 13.9829 0.248459 14.3141C0.579727 14.6454 1.11682 14.6454 1.44808 14.3141L8.67587 7.08635C9.00714 6.75508 9.00714 6.21799 8.67587 5.88673Z"
		fill="url(#paint0_linear_2_33)" />
	<path
		d="M17.4632 12.6347C17.1319 12.3034 16.5948 12.3034 16.2636 12.6346L8.01609 20.8821C7.68482 21.2134 7.68482 21.7505 8.0161 22.0818C8.34737 22.413 8.88445 22.413 9.21572 22.0818L17.4632 13.8343C17.7945 13.503 17.7945 12.9659 17.4632 12.6347Z"
		fill="url(#paint1_linear_2_33)" />
	<path
		d="M19.4871 5.4218C19.1559 5.09052 18.6188 5.09052 18.2875 5.42179L9.63517 14.0741C9.3039 14.4054 9.3039 14.9425 9.63518 15.2738C9.96645 15.605 10.5035 15.605 10.8348 15.2738L19.4871 6.62142C19.8184 6.29016 19.8184 5.75307 19.4871 5.4218Z"
		fill="url(#paint2_linear_2_33)" />
	<path
		d="M24.6763 10.6103C24.345 10.279 23.8079 10.279 23.4767 10.6103L18.2133 15.8737C17.882 16.2049 17.882 16.742 18.2133 17.0733C18.5446 17.4046 19.0817 17.4046 19.4129 17.0733L24.6763 11.8099C25.0076 11.4786 25.0076 10.9415 24.6763 10.6103Z"
		fill="url(#paint3_linear_2_33)" />
	<path
		d="M16.9008 2.83516C16.5696 2.50389 16.0325 2.50389 15.7012 2.83515L10.6628 7.87361C10.3315 8.20488 10.3315 8.74197 10.6628 9.07324C10.994 9.40451 11.5311 9.40451 11.8624 9.07324L16.9008 4.03479C17.2321 3.70352 17.2321 3.16643 16.9008 2.83516Z"
		fill="url(#paint4_linear_2_33)" />
	<path
		d="M27.2481 13.1821C26.9169 12.8508 26.3798 12.8508 26.0485 13.182L24.0541 15.1764C23.7228 15.5077 23.7228 16.0448 24.0541 16.3761C24.3854 16.7073 24.9225 16.7073 25.2537 16.3761L27.2481 14.3817C27.5794 14.0504 27.5794 13.5133 27.2481 13.1821Z"
		fill="url(#paint5_linear_2_33)" />
	<path
		d="M22.8674 18.4641H22.8686L22.8686 18.4374C22.8693 18.4177 22.8693 18.3981 22.8686 18.3783L22.8686 16.8617C22.8686 16.3932 22.4888 16.0134 22.0204 16.0134C21.5519 16.0134 21.1721 16.3932 21.1721 16.8617L21.1721 18.0579L13.182 26.048C12.8507 26.3793 12.8507 26.9164 13.182 27.2477C13.5133 27.5789 14.0504 27.5789 14.3816 27.2477L22.6216 19.0077C22.7729 18.8564 22.8543 18.6621 22.8674 18.4641Z"
		fill="url(#paint6_linear_2_33)" />
	<path
		d="M17.0579 18.8946V17.529C17.0579 17.0605 16.6781 16.6807 16.2096 16.6807C15.7411 16.6807 15.3613 17.0605 15.3613 17.529L15.3613 18.7252L10.5952 23.4913C10.264 23.8226 10.264 24.3597 10.5953 24.691C10.9265 25.0222 11.4636 25.0222 11.7949 24.691L16.8258 19.66C17.0338 19.452 17.1111 19.1629 17.0579 18.8946Z"
		fill="url(#paint7_linear_2_33)" />
	<path
		d="M9.50775 10.8945L9.50776 9.52893C9.50775 9.06045 9.12797 8.68067 8.65949 8.68066C8.191 8.68067 7.81121 9.06045 7.81122 9.52893L7.81121 10.7252L2.83518 15.7012C2.50391 16.0325 2.50391 16.5696 2.83519 16.9008C3.16646 17.2321 3.70355 17.2321 4.03482 16.9008L9.27571 11.66C9.48369 11.452 9.56093 11.1629 9.50775 10.8945Z"
		fill="url(#paint8_linear_2_33)" />
	<path
		d="M11.5272 5.4309L11.5273 4.23466L14.3138 1.44809C14.6451 1.11682 14.6451 0.579719 14.3138 0.248451C13.9825 -0.0828169 13.4455 -0.0828171 13.1142 0.248451L10.0628 3.29988C9.85477 3.50786 9.77754 3.79694 9.83071 4.0653L9.8307 5.4309C9.8307 5.89938 10.2105 6.27916 10.679 6.27916C11.1475 6.27916 11.5272 5.89938 11.5272 5.4309Z"
		fill="url(#paint9_linear_2_33)" />
	<path
		d="M20.2849 12.2088L20.2849 11.0126L22.0818 9.2157C22.413 8.88443 22.413 8.34734 22.0817 8.01606C21.7505 7.68479 21.2134 7.68479 20.8821 8.01606L18.8204 10.0778C18.6124 10.2858 18.5352 10.5749 18.5883 10.8432L18.5883 12.2088C18.5883 12.6773 18.9681 13.0571 19.4366 13.0571C19.9051 13.0571 20.2849 12.6773 20.2849 12.2088Z"
		fill="url(#paint10_linear_2_33)" />
	<path
		d="M8.51095 17.0652V15.6996C8.51095 15.2311 8.13117 14.8513 7.66268 14.8513C7.1942 14.8513 6.81441 15.2311 6.81441 15.6996V16.8958L5.42228 18.288C5.09101 18.6192 5.09101 19.1563 5.42229 19.4876C5.75356 19.8189 6.29065 19.8189 6.62191 19.4876L8.27891 17.8306C8.48689 17.6226 8.56412 17.3335 8.51095 17.0652Z"
		fill="url(#paint11_linear_2_33)" />
	<defs>
		<linearGradient id="paint0_linear_2_33" x1="0.710653" y1="9.96256" x2="23.5637" y2="10.8023"
			gradientUnits="userSpaceOnUse">
			<stop stop-color="#EAC41C" />
			<stop offset="1" stop-color="#F26E26" />
		</linearGradient>
		<linearGradient id="paint1_linear_2_33" x1="0.455501" y1="16.9068" x2="23.3085" y2="17.7465"
			gradientUnits="userSpaceOnUse">
			<stop stop-color="#EAC41C" />
			<stop offset="1" stop-color="#F26E26" />
		</linearGradient>
		<linearGradient id="paint2_linear_2_33" x1="0.714762" y1="9.83899" x2="23.5678" y2="10.6787"
			gradientUnits="userSpaceOnUse">
			<stop stop-color="#EAC41C" />
			<stop offset="1" stop-color="#F26E26" />
		</linearGradient>
		<linearGradient id="paint3_linear_2_33" x1="0.596594" y1="13.0757" x2="23.4496" y2="13.9154"
			gradientUnits="userSpaceOnUse">
			<stop stop-color="#EAC41C" />
			<stop offset="1" stop-color="#F26E26" />
		</linearGradient>
		<linearGradient id="paint4_linear_2_33" x1="0.875346" y1="5.47996" x2="23.7284" y2="6.31969"
			gradientUnits="userSpaceOnUse">
			<stop stop-color="#EAC41C" />
			<stop offset="1" stop-color="#F26E26" />
		</linearGradient>
		<linearGradient id="paint5_linear_2_33" x1="0.568026" y1="13.8573" x2="23.421" y2="14.6971"
			gradientUnits="userSpaceOnUse">
			<stop stop-color="#EAC41C" />
			<stop offset="1" stop-color="#F26E26" />
		</linearGradient>
		<linearGradient id="paint6_linear_2_33" x1="0.301101" y1="21.1081" x2="23.1541" y2="21.9478"
			gradientUnits="userSpaceOnUse">
			<stop stop-color="#EAC41C" />
			<stop offset="1" stop-color="#F26E26" />
		</linearGradient>
		<linearGradient id="paint7_linear_2_33" x1="0.330075" y1="20.3187" x2="23.1831" y2="21.1584"
			gradientUnits="userSpaceOnUse">
			<stop stop-color="#EAC41C" />
			<stop offset="1" stop-color="#F26E26" />
		</linearGradient>
		<linearGradient id="paint8_linear_2_33" x1="0.609534" y1="12.7151" x2="23.4625" y2="13.5549"
			gradientUnits="userSpaceOnUse">
			<stop stop-color="#EAC41C" />
			<stop offset="1" stop-color="#F26E26" />
		</linearGradient>
		<linearGradient id="paint9_linear_2_33" x1="0.97621" y1="2.72725" x2="23.8292" y2="3.56703"
			gradientUnits="userSpaceOnUse">
			<stop stop-color="#EAC41C" />
			<stop offset="1" stop-color="#F26E26" />
		</linearGradient>
		<linearGradient id="paint10_linear_2_33" x1="0.720775" y1="9.68706" x2="23.5738"
			y2="10.5268" gradientUnits="userSpaceOnUse">
			<stop stop-color="#EAC41C" />
			<stop offset="1" stop-color="#F26E26" />
		</linearGradient>
		<linearGradient id="paint11_linear_2_33" x1="0.450303" y1="17.0588" x2="23.3033"
			y2="17.8985" gradientUnits="userSpaceOnUse">
			<stop stop-color="#EAC41C" />
			<stop offset="1" stop-color="#F26E26" />
		</linearGradient>
	</defs>
</svg>